# xmcd
#
# Track frame offsets: 
#        150
#        14435
#        31740
#        50945
#        68507
#        89705
#        102287
#        118615
#        131995
#        145182
#        156432
#        174707
#        201716
#
# Disc length: 2865 seconds
#
# Revision: 0
# Processed by: cddbd v1.5.2PL0 Copyright (c) Steve Scherf et al.
# Submitted via: ExactAudioCopy v0.99pb4
#
DISCID=c70b2f0d
DTITLE=Jessie Baylin - Firesight
DYEAR=2008
DGENRE=Rock
TTITLE0=See How I Run
TTITLE1=Leave Your Mark
TTITLE2=Was I On Your Mind
TTITLE3=Not A Day More
TTITLE4=Lonely Heaven
TTITLE5=Tennessee Gem
TTITLE6=I'll Cry For The Both Of Us
TTITLE7=The Glitter
TTITLE8=Contradicting Words
TTITLE9=By Any Rules
TTITLE10=Tick Tock
TTITLE11=Sparrow
TTITLE12=I Wanna Feel You
EXTD=
EXTT0=
EXTT1=
EXTT2=
EXTT3=
EXTT4=
EXTT5=
EXTT6=
EXTT7=
EXTT8=
EXTT9=
EXTT10=
EXTT11=
EXTT12=
PLAYORDER=
